<?xml version="1.0" encoding="utf-8"?>
<!-- Generator: Adobe Illustrator 17.0.0, SVG Export Plug-In . SVG Version: 6.00 Build 0)  -->
<!DOCTYPE svg PUBLIC "-//W3C//DTD SVG 1.1//EN" "http://www.w3.org/Graphics/SVG/1.1/DTD/svg11.dtd">
<svg version="1.1" id="Слой_1" xmlns="http://www.w3.org/2000/svg" xmlns:xlink="http://www.w3.org/1999/xlink" x="0px" y="0px"
	 width="200px" height="200px" viewBox="0 0 200 200" enable-background="new 0 0 200 200" xml:space="preserve">
<path fill-rule="evenodd" clip-rule="evenodd" fill="#FE6B01" d="M10.256,127.197c0,0-4.169,0.309-6.054-0.996
	c-1.812-1.253-3.124-4.713,0.193-8.032C9.397,113.157,91.336,9.986,93.949,6.144c3.481-5.113,7.592-4.881,11.073,0.003
	c1.021,1.43,17.989,22.528,36.843,45.89c-0.058,0.031-0.058-7.751-0.058-9.065c0-2.112,0.859-6.696,6.155-6.693l13.423,0.009
	c3.869,0,5.517,3.478,5.517,7.598c-0.006,1.485,0.034,39.16,0,39.123c14.765,18.206,26.843,32.999,28.005,34.163
	c6.712,6.709-0.721,10.44-3.044,10.434l-9.374-0.021c-3.723-0.009-7.057,1.415-7.057,6.302v47.094
	c0,5.352-35.761,17.155-75.252,17.017c-39.615-0.141-75.863-9.722-75.848-14.786c0.012-5.345-0.015-41.865,0-48.359
	c0.012-6.504-2.051-7.528-6.216-7.638C11.958,127.054,10.256,127.197,10.256,127.197z M87.964,97.136c0,0-0.685-4.532,3.915-4.905
	c4.603-0.37,16.342-1.012,21.926,2.304s9.407,8.142,9.407,14.756c0,6.614-1.158,11.247-5.477,15.104
	c-3.918,3.499-8.695,4.56-16.064,4.496c-7.054-0.058-13.707-1.372-13.707-5.321V97.136z M65.189,77.881c0,0-0.095-5.009,7.576-6.039
	c7.674-1.03,31.565-2.894,45.511,0.813c13.952,3.707,24.392,13.943,26.58,26.914c2.408,14.267,0.254,30.162-10.636,40.483
	c-8.625,8.179-19.361,10.547-30.933,10.327c-11.287-0.214-15.361-5.242-15.361,2.039v17.02c0,2.647-0.474,3.686-3.6,4.716
	c-1.137,0.468-3.793,0.969-7.583,0.96c-3.79-0.012-7.769-0.535-7.864-0.724c-3.029-0.293-3.692-2.185-3.692-4.642V77.881z"/>
</svg>
